<svg xmlns="http://www.w3.org/2000/svg" viewBox="0 0 256 256" width="256" height="256">
<defs></defs>
<rect x="6" y="6" width="244" height="244" rx="36" fill="#0b1416"/>
<rect x="9" y="9" width="238" height="238" rx="33" fill="none" stroke="#c9b98f" stroke-width="5"/>
<g stroke-linejoin="round" stroke-linecap="round">
<g stroke="#1c2226" stroke-width="9">
<rect x="78" y="80" width="100" height="140" rx="16" fill="#e89a3a"/>
<rect x="70" y="42" width="116" height="44" rx="10" fill="#f4f4f0"/>
<rect x="78" y="118" width="100" height="58" fill="#f4f4f0" stroke-width="6"/>
</g>
<path d="M94 58 L94 72 M110 58 L110 72 M126 58 L126 72 M142 58 L142 72 M158 58 L158 72" stroke="#c9c9bf" stroke-width="4"/>
<path d="M94 136 L162 136 M94 152 L144 152" stroke="#8a8070" stroke-width="5"/>
<path d="M92 190 L92 206" stroke="#fff" stroke-width="7" opacity="0.6"/></g>
<circle cx="208" cy="208" r="28" fill="#1c2226" stroke="#f1f4f6" stroke-width="4"/>
<text x="208" y="218" text-anchor="middle" font-family="Arial Black, Arial, sans-serif" font-weight="900" font-size="28" fill="#f1f4f6">x2</text>
</svg>